<svg xmlns="http://www.w3.org/2000/svg" width="1420" height="534" fill="none" viewBox="0 0 1420 534"><path fill="#1d1d1d" d="M0 0h1420v534H0z"/><mask id="a" width="1418" height="534" x="0" y="0" maskUnits="userSpaceOnUse" style="mask-type:alpha"><path fill="#2b2b2b" d="M0 0h1418v534H0z"/></mask><g mask="url(#a)"><path fill="#1d1d1d" d="M1293.97 623.496v161.361H125.429V-21.952H1293.97v645.448"/><path stroke="url(#b)" d="M1293.97 954V-197M1127.03 954V-197M960.099 954V-197M793.165 954V-197M626.231 954V-197M459.297 954V-197M292.363 954V-197M125.429 954V-197M1418 139.41H0M1418-21.952H0m1418 322.724H0m1418 161.361H0m1418 161.363H0m1418 161.361H0"/></g><defs><radialGradient id="b" cx="0" cy="0" r="1" gradientTransform="rotate(1.915 -9831.365 21565.37)scale(703.393)" gradientUnits="userSpaceOnUse"><stop offset=".524" stop-color="#fff" stop-opacity="0"/><stop offset="1" stop-color="#fff" stop-opacity=".18"/></radialGradient></defs></svg>